<svg xmlns="http://www.w3.org/2000/svg" preserveAspectRatio="xMidYMid meet" version="1.0" viewBox="0 0 512 512">
  <path fill="#000" d="M92.3 98.2c7.5 14.2 109.5 210.1 138.4 265.8 10.7 20.6 20.6 38.5 21.9 39.7 2.8 2.6 7.8 3 11.9 1.1 3.7-1.7 35.5-64.9 35.5-70.5-.1-3.1-12.4-27.2-63.4-123.8-52.7-99.8-63.9-120.4-66.6-122.3-3.3-2.2-3.4-2.2-43.7-2.2H85.9l6.4 12.2zm249.3-10.1c-4 3.1-78.6 152.6-78.6 157.4 0 2.4.9 4.5 2.9 6.7l2.9 3.3h35c33.6 0 35.1-.1 37.2-2 1.2-1.1 20.9-39.2 43.6-84.8L426 86h-40.9c-40.1 0-40.9 0-43.5 2.1zM92.4 257c-1.2.4-3.1 2.1-4.3 3.6l-2.1 2.7V426h78.2l2.8-2.8c1.9-1.9 3-4.3 3.5-7.3.3-2.4.5-37.7.3-78.4-.3-69.6-.4-74.2-2.1-76.7-1-1.4-3.2-3.1-4.9-3.7-3.7-1.3-68.2-1.4-71.4-.1zm255.1.4c-6.3 2.8-6-1-6.3 80.1-.2 40.7 0 76 .3 78.4.5 3 1.6 5.4 3.5 7.3l2.8 2.8H426V263l-2.9-3.2-2.9-3.3-34.9-.2c-27.6-.2-35.4 0-37.8 1.1z"/>
</svg>
