<svg xmlns="http://www.w3.org/2000/svg" viewBox="0 0 512 512">
  <style>
    @media (prefers-color-scheme: dark) {
      :root {
        filter: invert(100%)
      }
    }
  </style>

  <g fill="none" fill-rule="evenodd">
    <rect fill="#f9fafb" width="512" height="512" rx="64"/>
    <path d="M170.95 272.34v138.78a16 16 0 0 1-16 16h-69.4V272.34a16 16 0 0 1 16-16h53.4a16 16 0 0 1 16 16Zm256.17 0v154.78h-69.4a16 16 0 0 1-16-16V272.34a16 16 0 0 1 16-16h53.4a16 16 0 0 1 16 16ZM162.37 85.56c5.27 0 10.12 2.92 12.58 7.59l123.7 234.38a16 16 0 0 1 .17 14.63l-24.98 49.95a16 16 0 0 1-28.5.23L85.56 85.56h76.8Zm264.75 0-80.97 161.93a16 16 0 0 1-14.31 8.85h-49.61a16 16 0 0 1-14.32-23.16l69.4-138.78a16 16 0 0 1 14.3-8.84h75.5Z" fill="#141415"/>
  </g>
</svg>
